<svg id="Layer_1" data-name="Layer 1" xmlns="http://www.w3.org/2000/svg" viewBox="0 0 135.74 40.7"><defs><style>.cls-1{fill:#999;}</style></defs><path class="cls-1" d="M66.36,19.58H60.77l0-2.35h5.07A5.2,5.2,0,0,0,68,16.8a3.27,3.27,0,0,0,1.45-1.21A3.32,3.32,0,0,0,70,13.68a3.6,3.6,0,0,0-.47-2,2.6,2.6,0,0,0-1.41-1.13,6.72,6.72,0,0,0-2.39-.36h-4.3V29.89H58.5v-22h7.22a11.68,11.68,0,0,1,3,.35A5.84,5.84,0,0,1,71,9.25a4.52,4.52,0,0,1,1.42,1.81,6.63,6.63,0,0,1,.49,2.65,4.56,4.56,0,0,1-.7,2.47A5.33,5.33,0,0,1,70.28,18a7.5,7.5,0,0,1-2.88.89Zm-.14,10.31h-6.6l1.65-2.38h4.95A5.25,5.25,0,0,0,68.58,27a3.39,3.39,0,0,0,1.5-1.37,4,4,0,0,0,.52-2.1,4.77,4.77,0,0,0-.44-2.12,3,3,0,0,0-1.38-1.38,5.32,5.32,0,0,0-2.42-.48H62.19l0-2.35h5.7l.62.85a5.32,5.32,0,0,1,2.69.91,5,5,0,0,1,1.69,1.93,5.82,5.82,0,0,1,.59,2.61A6.39,6.39,0,0,1,72.6,27a5.69,5.69,0,0,1-2.53,2.15A9.35,9.35,0,0,1,66.22,29.89Zm10.44-8v-.35a10.27,10.27,0,0,1,.51-3.29,7.73,7.73,0,0,1,1.49-2.65A6.55,6.55,0,0,1,81,13.84a7.83,7.83,0,0,1,6.2,0,6.62,6.62,0,0,1,2.36,1.75,7.59,7.59,0,0,1,1.5,2.65,10.27,10.27,0,0,1,.52,3.29v.35a10.27,10.27,0,0,1-.52,3.29,7.86,7.86,0,0,1-1.5,2.65,6.93,6.93,0,0,1-2.35,1.75,7.29,7.29,0,0,1-3.09.62,7.37,7.37,0,0,1-3.1-.62,7,7,0,0,1-2.36-1.75,8,8,0,0,1-1.49-2.65A10.27,10.27,0,0,1,76.66,21.88Zm2.8-.35v.35a8.73,8.73,0,0,0,.29,2.32,6.11,6.11,0,0,0,.86,1.9,4.23,4.23,0,0,0,1.47,1.32,4.3,4.3,0,0,0,2,.47,4.21,4.21,0,0,0,2-.47,4.16,4.16,0,0,0,1.45-1.32,6.12,6.12,0,0,0,.87-1.9,8.73,8.73,0,0,0,.3-2.32v-.35a8.5,8.5,0,0,0-.3-2.29,6.15,6.15,0,0,0-.88-1.92A4.13,4.13,0,0,0,86.12,16a4,4,0,0,0-2-.49,4.09,4.09,0,0,0-2,.49,4.28,4.28,0,0,0-1.45,1.33,6.11,6.11,0,0,0-.86,1.92A8.5,8.5,0,0,0,79.46,21.53Zm14.89.35v-.35a10.27,10.27,0,0,1,.51-3.29,7.89,7.89,0,0,1,1.49-2.65,6.64,6.64,0,0,1,2.34-1.75,7.83,7.83,0,0,1,6.2,0,6.54,6.54,0,0,1,2.36,1.75,7.59,7.59,0,0,1,1.5,2.65,10,10,0,0,1,.52,3.29v.35a10,10,0,0,1-.52,3.29,7.86,7.86,0,0,1-1.5,2.65,6.83,6.83,0,0,1-2.35,1.75,7.23,7.23,0,0,1-3.09.62,7.37,7.37,0,0,1-3.1-.62,7,7,0,0,1-2.36-1.75,8.2,8.2,0,0,1-1.49-2.65A10.27,10.27,0,0,1,94.35,21.88Zm2.8-.35v.35a9.16,9.16,0,0,0,.29,2.32,6.11,6.11,0,0,0,.86,1.9,4.23,4.23,0,0,0,1.47,1.32,4.32,4.32,0,0,0,2,.47,4.21,4.21,0,0,0,2-.47,4.08,4.08,0,0,0,1.45-1.32,5.9,5.9,0,0,0,.87-1.9,8.73,8.73,0,0,0,.3-2.32v-.35a8.5,8.5,0,0,0-.3-2.29,5.93,5.93,0,0,0-.88-1.92A4.13,4.13,0,0,0,103.81,16a4,4,0,0,0-2-.49,4.09,4.09,0,0,0-2,.49,4.28,4.28,0,0,0-1.45,1.33,6.11,6.11,0,0,0-.86,1.92A8.92,8.92,0,0,0,97.15,21.53Zm18.42-4.77V29.89h-2.82V13.5h2.67ZM115,21.08l-1.3,0a11.21,11.21,0,0,1,.44-3.1,7.18,7.18,0,0,1,1.26-2.5,5.46,5.46,0,0,1,2.07-1.64,6.7,6.7,0,0,1,2.88-.59,6.54,6.54,0,0,1,2.12.33,4.14,4.14,0,0,1,1.68,1,4.7,4.7,0,0,1,1.11,1.78,7.9,7.9,0,0,1,.39,2.64V29.89h-2.8V19.11a4.17,4.17,0,0,0-.44-2.06,2.48,2.48,0,0,0-1.21-1.12,4.27,4.27,0,0,0-1.85-.37,4.48,4.48,0,0,0-2.08.44,3.53,3.53,0,0,0-1.33,1.21A5.8,5.8,0,0,0,115.2,19,9.94,9.94,0,0,0,115,21.08Zm10.62-1.55-1.88.58a8.28,8.28,0,0,1,.44-2.59,7,7,0,0,1,1.26-2.22,6,6,0,0,1,2-1.52,6.3,6.3,0,0,1,2.77-.58,7.29,7.29,0,0,1,2.34.35,4.22,4.22,0,0,1,1.72,1.07,4.47,4.47,0,0,1,1.08,1.84,8.69,8.69,0,0,1,.36,2.66V29.89h-2.81V19.09a4.28,4.28,0,0,0-.44-2.13,2.29,2.29,0,0,0-1.22-1.08,4.85,4.85,0,0,0-1.84-.32,4,4,0,0,0-1.64.32,3.52,3.52,0,0,0-1.2.88,3.78,3.78,0,0,0-.74,1.26A4.68,4.68,0,0,0,125.61,19.53Z"/><path class="cls-1" d="M18.18,17.72C26,12.82,36.52,16.45,32.12,25S-12.55,17.71,4,25.61s22.86,24,29.62,8.78,14.89-48.12-8-28.12S8.44,23.84,18.18,17.72Z"/></svg>